Coordinates
version=1
nRows=8
nColumns=42
inDegrees=yes

Units are S.I. units (second, meters, Newtons, ...)
If the header above contains a line with 'inDegrees', this indicates whether rotational values are in degrees (yes) or radians (no).

endheader
time	pelvis_tilt	pelvis_list	pelvis_rotation	pelvis_tx	pelvis_ty	pelvis_tz	hip_flexion_r	hip_adduction_r	hip_rotation_r	knee_angle_r	knee_adduction_r	knee_angle_r_beta	ankle_angle_r	subtalar_angle_r	mtp_angle_r	hip_flexion_l	hip_adduction_l	hip_rotation_l	knee_angle_l	knee_adduction_l	knee_angle_l_beta	ankle_angle_l	subtalar_angle_l	mtp_angle_l	lumbar_extension	lumbar_bending	lumbar_rotation	arm_flex_r	arm_add_r	arm_rot_r	elbow_flex_r	pro_sup_r	wrist_flex_r	wrist_dev_r	arm_flex_l	arm_add_l	arm_rot_l	elbow_flex_l	pro_sup_l	wrist_flex_l	wrist_dev_l
      1.98000000	     14.87160399	     -0.96571237	     -1.55392296	      1.01207117	      0.86009236	     -0.19866585	      2.57574897	      0.49382388	    -10.09254885	     62.65547649	    -10.41361692	      1.09354436	     13.98215560	    -18.72153571	     -7.50163540	    -10.51742466	      1.50030194	    -14.09475645	     14.26126697	      1.49600333	      0.24890606	     17.33938737	     -2.71249242	     -7.50163540	    -28.03541186	      0.18536932	      3.37525587	      1.81560447	     -7.13904290	     -2.34079907	     30.07445513	     90.00000001	      0.00000000	      0.00000000	      9.60381173	     -6.47371248	     -6.33262468	     31.07963361	     90.00000001	      0.00000000	      0.00000000
      1.99000000	     15.11088474	     -1.12330811	     -1.11722925	      1.02250544	      0.86063725	     -0.19971609	      3.49925281	      0.83231927	     -9.77215341	     61.20321538	     -9.61896237	      1.06819762	     15.14915503	    -18.75869979	     -7.50154336	    -12.00499272	      1.28820211	    -14.24552858	     13.34756115	      1.68607528	      0.23295889	     17.93975270	     -1.02656738	     -7.50154336	    -28.30949190	      0.54235256	      3.00710619	      1.05300099	     -6.90975018	     -3.46169177	     29.54586755	     90.00000001	      0.00000000	      0.00000000	     10.56294929	     -7.03026995	     -4.80452752	     32.35604935	     90.00000001	      0.00000000	      0.00000000
      2.00000000	     14.96102901	     -1.12502128	     -0.64434973	      1.03273786	      0.86034482	     -0.20104001	      4.91134291	      0.89691019	     -9.60066885	     59.70323748	     -8.86103334	      1.04201807	     15.97961199	    -18.78702941	     -7.50150308	    -12.88658259	      1.25268684	    -14.27563493	     12.72429585	      1.78438618	      0.22208086	     18.43551709	     -0.10533982	     -7.50150308	    -28.15358255	      0.78443009	      2.55910144	      0.14328241	     -6.82111395	     -3.80193605	     29.22615474	     90.00000001	      0.00000000	      0.00000000	     11.67478673	     -7.33390803	     -4.31325360	     33.30647439	     90.00000001	      0.00000000	      0.00000000
      2.01000000	     15.10253355	     -1.19264588	     -0.18557460	      1.04325905	      0.86028789	     -0.20204417	      5.79296422	      1.08092915	     -9.43401376	     57.72703843	     -8.16275759	      1.00752689	     16.42114201	    -18.80106394	     -7.50139158	    -14.10668560	      1.02972819	    -14.85109046	     12.16906515	      1.97491237	      0.21239025	     18.88710948	      1.31419396	     -7.50139158	    -28.28751502	      1.05400704	      2.22514925	     -0.80892237	     -6.60223820	     -4.89998496	     29.07756257	     90.00000001	      0.00000000	      0.00000000	     12.62181900	     -7.90330509	     -2.63358190	     34.62638001	     90.00000001	      0.00000000	      0.00000000
      2.02000000	     14.74391277	     -0.93405037	      0.19016235	      1.05331629	      0.85920073	     -0.20326220	      7.40688262	      0.73175105	     -9.49991556	     55.94714135	     -7.55973650	      0.97646182	     16.58073551	    -18.64927317	     -7.50137155	    -14.54951357	      1.23944074	    -15.16749506	     11.99294628	      2.02314139	      0.20931640	     19.06438942	      1.58206950	     -7.50137155	    -27.90679745	      0.96759046	      1.82498686	     -1.81597461	     -6.53997858	     -4.95796609	     28.90769449	     90.00000001	      0.00000000	      0.00000000	     13.83424485	     -8.06501922	     -2.56739078	     35.45456561	     90.00000001	      0.00000000	      0.00000000
      2.03000000	     14.53562872	     -0.79758573	      0.55805442	      1.06370051	      0.85823413	     -0.20447939	      8.59570583	      0.60739866	     -9.28418254	     53.65769924	     -6.89863676	      0.93650352	     16.98270823	    -18.79246859	     -7.50134872	    -15.34659013	      1.41501655	    -15.17113671	     11.44195897	      1.96339980	      0.19969986	     19.52279746	      2.34408633	     -7.50134872	    -27.65074655	      1.03969436	      1.35364862	     -2.76277838	     -6.47216553	     -5.16723149	     28.81696979	     90.00000001	      0.00000000	      0.00000000	     14.83039276	     -8.31389282	     -2.30717556	     36.41073657	     90.00000001	      0.00000000	      0.00000000
      2.04000000	     15.16084538	     -1.08946890	      1.09470705	      1.07440182	      0.85836167	     -0.20501954	      8.50578672	      1.07659912	     -9.20394913	     50.71898408	     -6.14595451	      0.88521327	     17.16799322	    -18.74881625	     -7.50124477	    -17.30467479	      0.79206426	    -15.37970989	     10.54531472	      2.45194290	      0.18405046	     20.22148710	      4.26173411	     -7.50124477	    -28.31141920	      1.50616298	      1.16617028	     -3.67515696	     -6.22220361	     -6.35437214	     28.89904577	     90.00000001	      0.00000000	      0.00000000	     15.76898511	     -8.93614858	     -0.37041774	     38.08607426	     90.00000001	      0.00000000	      0.00000000
      2.05000000	     15.13080516	     -0.97286071	      1.42691920	      1.08471607	      0.85731629	     -0.20586329	      9.31649549	      0.93252533	     -9.22439569	     48.02700205	     -5.53432435	      0.83822932	     17.21400062	    -18.69773323	     -7.50120554	    -18.31035873	      0.82346106	    -15.46879345	     10.01105476	      2.58914310	      0.17472587	     20.66262538	      5.09820771	     -7.50120554	    -28.27543515	      1.53110947	      0.86676097	     -4.56378659	     -6.11917297	     -6.61488129	     28.88384719	     90.00000001	      0.00000000	      0.00000000	     16.81902730	     -9.14892092	     -0.02765940	     39.19327015	     90.00000001	      0.00000000	      0.00000000
